<svg width="90mm" height="55mm" version="1.1" viewBox="0 0 90 55" xml:space="preserve" xmlns="http://www.w3.org/2000/svg"><defs><linearGradient id="linearGradient16600" x1="-202" x2="1e3" y1="542" y2="542" gradientUnits="userSpaceOnUse"><stop stop-color="#01b4e4" offset="0"/><stop stop-color="#48c1c2" offset=".5"/><stop stop-color="#90cea1" offset="1"/></linearGradient></defs><g transform="matrix(.05 0 0 .05 13 1)" clip-rule="evenodd" fill="url(#linearGradient16600)" fill-rule="evenodd" image-rendering="optimizeQuality" shape-rendering="geometricPrecision"><path d="m533 193c84 0 152 68 152 152 0 84-68 152-152 152-84 0-152-68-152-152 0-84 68-152 152-152zm0-28c50 0 95 20 127 53 119 123 27 305-127 307-50 0-95-20-127-53-33-33-53-78-53-127 0-50 20-95 53-127s78-53 127-53zm108 306c.6-1 2-2 3-3l1-.6c2-2 4-3 5-5 30-30 49-72 49-118 0-46-19-88-49-118-30-30-72-49-118-49-46 0-88 19-118 49-30 30-49 72-49 118 0 46 19 88 49 118 30 30 72 49 118 49 41 0 79-15 108-40zm-81-200c-5 15-19 27-36 27-14 0-27-8-33-20 12-8 26-12 42-12 10 0 19 2 28 5zm23 14c17 14 28 36 28 60 0 1-.02 2-.07 3-21-.3-37-17-37-38 0-10 4-19 10-25zm21 91c-10 22-29 39-52 45-.9-3-1-7-1-10 0-21 17-38 38-38 6 0 11 1 16 3zm-80 47c-24-3-45-16-58-36 6-4 13-6 20-6 21 0 38 17 38 38 0 1-.06 2-.2 4zm-67-57c-2-7-3-14-3-21 0-18 6-35 17-49 10 7 16 19 16 32 0 18-13 34-30 38zm67-151c25 0 45 20 45 45 0 12-5 23-13 32-8 8-19 13-32 13-12 0-23-5-32-13-8-8-13-19-13-32 0-12 5-23 13-32l.02-.02c8-8 19-13 32-13zm88 50c12 0 23 5 32 13l.4.4c8 8 13 19 13 31 0 25-20 45-45 45-12 0-23-5-32-13s-13-19-13-32 5-23 13-32c8-8 19-13 32-13zm-23 101c12 0 23 5 32 13 8 8 13 19 13 32s-5 23-13 32l-.4.4c-8 8-19 13-31 13-12 0-23-5-32-13l-.02-.03c-8-8-13-19-13-32 0-12 5-23 13-32 8-8 19-13 32-13zm-102 9c12 0 23 5 32 13s13 19 13 32c0 12-5 23-13 32-8 8-19 13-32 13-12 0-23-5-32-13l-.4-.4c-8-8-13-19-13-31 0-12 5-23 13-32s19-13 32-13zm-40-93c13 0 24 5 33 14 8 8 14 20 14 33 0 13-5 24-14 33-8 8-20 14-33 14-13 0-24-5-33-14l-.02-.03c-8-8-14-20-14-33 0-13 5-24 14-33l.02-.02c8-8 20-14 33-14zm86 45c10 0 18 8 18 18 0 10-8 18-18 18s-18-8-18-18c0-10 8-18 18-18zm-73-161c-1 .7-3 1-4 2 2-.7 3-1 4-2zm-4 2c-83 39-589 10-589 80 0 46 19 74 37 100 16 23 30 44 30 77 0 39-116 76-116 76l-21 38c3-1 181-43 181-114 0-83-50-90-50-164 0-19 123 .04 235 14l-8 22c-5 15-10 27-13 37-4 10-7 18-9 26-2 7-5 15-7 24-1 3-2 6-4 11s-4 10-6 16c-2 6-3 11-3 15-3 10-6 19-8 29-2 9-4 16-6 21-1 6-2 10-2 14 0 3 .5 6 1 9 1 2 4 5 7 9 2 2 5 3 7 5 3 2 5 2 7 2 6-.3 11-3 15-7 5-5 9-9 13-14 6-9 14-17 22-25 9-8 17-16 26-22 9-7 17-12 24-16 7-4 13-6 17-6 4 0 5 3 5 10-.3 7-1 17-2 32-1 10-.5 18 1 25 2 6 6 12 12 16 6 4 12 6 18 5 6-1 13-4 21-9 4-2 6-6 8-10 2-4 2-7-.5-9-1-.3-3-1-4-2-1-1-3-2-4-3l-5-1c-3-1-6-1-9 0h-5l4-17c.7-4 1-9 2-16 1-7 2-11 2-14 1-9 1-16 .5-23-.7-6-3-12-6-16-4-6-7-10-11-12-4-3-7-4-11-4-3 0-7 .3-11 1-4 .7-8 2-11 3-3 1-6 3-8 5-1 1-3 2-4 3l-3 2c-1 0-2 .5-3 1s-2 2-2 3l-5 3c-3 2-6 5-10 7-4 3-8 6-13 10-5 4-10 8-15 13-5 4-9 8-12 12-4 4-6 7-8 9 .3-3 1-7 2-10 1-4 2-7 2-9 1-4 2-7 3-11 1-4 1-6 1-8l1-3c1-2 3-5 4-7 1-3 3-6 4-9 2-4 3-7 3-8 5-12 10-25 15-39 5-15 11-30 16-45 2-5 4-10 6-15 67 8 123 11 137-.4-21-33 73-89 116-111zm309 165c-.8-.05-2-.04-3 .04-1 .1-2 .3-4 .7-5 1-9 4-13 9-1 1-2 4-4 7-1 4-3 8-4 14-2 7-3 12-3 15-.3 3-.7 5-1 6 0 1-.5 3-1 5-1 6-3 13-4 19-1 6-1 15-1 25-.7 11 .3 21 3 32 3 11 7 20 12 28 5 7 10 11 15 11 4 0 10-2 17-5 7-4 14-9 21-14 7-6 12-12 15-17 2-4 4-6 6-7 2-.7 4-1 5-1l1 3c1 2 1 4 1 7 0 12 5 21 15 27 5 3 11 5 19 4 8-.7 16-3 25-7 9-4 17-10 24-17 3-3 6-5 9-8 4-3 10-9 18-19 3-4 6-8 9-11 3-4 6-6 7-7 2-2 3-6 5-11 2-6 4-12 6-18 2-7 3-12 4-15 0-4-.5-8-1-13-.7-5-2-9-3-10-2-3-5-4-8-5-3-1-6-.8-9 .5-3 2-6 3-7 5l-4 6c-3 4-4 6-4 8 0 1-1 5-4 10-3 5-6 11-10 17-4 7-8 13-12 19-4 6-8 10-11 13-7 7-12 12-16 15-4 3-7 4-11 4-3 0-5-.5-7-1-2-1-2-5-2-12 0-5 .7-12 2-19 2-7 4-14 6-22 3-7 5-13 8-19 4-8 5-15 4-22-.7-7-3-12-7-16-4-3-9-4-15-5-6-1-11 1-14 6-1 1-3 4-4 7-1 3-3 8-4 13-2 6-4 12-6 16-2 5-4 10-7 15-3 6-8 13-14 23-8 12-14 20-19 24-5 4-8 6-10 4-2-2-2-5-1-11 1-5 2-11 2-18 1-8 2-15 2-22 1-7 2-11 2-13 2-3 3-7 4-13 1-6 1-12 1-18 0-6-1-10-3-11-.7-5-3-8-7-10-2-1-5-2-7-2zm305 202c-2 0-4 .2-5 .5-4 .7-6 2-8 3-2 2-4 4-6 8-2 4-6 9-10 17-4 8-10 18-17 32-3 6-6 11-7 14-2 3-3 6-4 9l-6 13c-7 17-14 32-20 46-6 13-11 28-16 44-1 4-3 8-5 14-2 5-4 10-5 15-10 24-17 44-21 59-5 15-6 25-5 30 0 6 3 11 8 14 6 3 10 5 14 5h4c1-.3 2-.8 3-1 1-.7 3-2 4-3 1-1 3-3 4-5 2-5 4-11 6-19 2-8 4-15 6-21l3-9c1 0 3 1 5 4 2 3 5 6 9 11 3 2 5 5 7 7 2 2 4 5 5 7 2 2 3 4 3 5 1 .7 3 2 5 5 3 3 5 5 8 8 3 3 4 4 5 5 1 2 3 5 6 7 3 2 5 4 6 5 3 2 7 2 11 2 5-.3 9-1 12-2 4-1 6-2 7-2 .7-1 1-3 1-6 .7-3 .8-5 .5-8 0-3-.5-6-1-8-1-3-3-4-5-5-2-1-5-4-8-7-4-4-7-8-11-12-4-4-7-8-9-12-3-4-4-6-4-7 0-1 .8-2 2-2 2-.3 4-1 5-2 3-1 5-2 6-2 2-.3 4-2 8-6 4-3 6-4 6-4 1-.3 2-.5 3-.5v-2c0-1 .8-2 2-4 2-2 3-4 4-5 3-1 4-3 5-5 1-2 2-4 2-5l.5-.5c.7-.7 1-1 2-2 1-.7 3-1 4-2 3-3 7-8 10-15 4-8 7-15 10-23 3-8 4-13 4-16-1-6-3-12-6-19-3-6-6-11-10-13-2-1-5-2-7-2-2-.3-5-.3-7 0-3 0-6 .5-9 1-6 1-13 4-22 9-9 5-17 11-24 17-1 .7-3 2-4 3-1 1-2 2-3 2-1 .3-1 .2-1-.5 1-5 4-12 8-21 5-9 8-16 11-23 1-3 2-6 4-10 2-4 4-8 5-12 1-3 2-5 3-8 1-3 1-5 1-6 1 0 2-.5 3-1 1-1 2-3 2-4 1-2 2-3 2-4 4-7 6-11 8-14l5-8c2-3 4-7 6-13 5-8 8-14 9-18 1-4 1-8 0-10-1-3-3-5-6-8-2-2-4-3-8-3-2-.3-4-.5-5-.5zm-680 11-10 1c-7 .3-15 .8-24 1-12 .7-21 1-29 2-8 .7-15 1-22 2-7 1-16 2-27 3-5 1-11 2-17 3-6 1-10 2-14 2-10 2-17 4-21 7-4 3-6 6-7 10-1 5 .3 10 5 15 5 5 14 6 28 5 3-.7 7-1 13-1 6-.7 11-1 17-1 6-.7 11-1 14-1l25-2v.03c-2 2-3 2-3 1-.3-.7-1-.5-2 .5 0 1-.7 2-2 3-1 1-1 2-1 4 0 1-.2 3-.5 5-.3 2-1 4-3 5-.3 1-1 4-2 7-1 4-3 7-6 11-.7 2-2 7-4 14-2 7-5 16-8 25-3 10-6 19-9 29-3 10-6 19-8 26-2 7-3 12-4 15-1 5-3 11-5 16-2 6-3 9-4 10-.3 1-1 4-2 8l-3 14c-3 6-6 14-9 24-3 10-6 20-9 30-3 10-4 17-4 23-.3 4 1 9 5 15 4 6 9 9 15 8 3-.3 5-1 7-2 2-1 5-4 7-10 3-6 6-15 10-28 2-9 5-18 9-29 4-11 7-18 10-24 7-17 12-31 15-41 3-10 6-18 9-23 .7-2 2-6 4-12 2-7 5-14 7-23 3-9 6-17 8-26 3-9 5-16 7-22 2-6 4-9 4-10-.3-2 .5-5 2-10 2-5 4-11 6-18 5-10 8-17 9-23 .1-.7.2-1 .3-2 6-.2 12-.5 19-1 11 .7 19 1 24 2 5 .7 9 2 11 3 2 1 4 3 6 4 5 2 9 2 14 .5 5-2 11-4 19-6 3-1 4-3 5-5 1-2 1-5 0-9-1-6-4-11-9-15-5-4-11-7-18-9-3-1-8-2-15-3-7-1-13-2-19-2-6-.7-9-1-10-1zm43 120c-7 0-12 2-16 5-3 5-7 12-11 23-4 10-8 20-12 32-4 11-7 22-10 31-3 10-4 16-5 20-2 9-4 17-6 25-2 7-3 15-4 24-1 7 .2 12 3 15 4 4 7 7 10 9 5 5 10 7 13 6 4-1 8-5 12-10 2-3 4-6 5-9l1-5c0-1 .5-4 1-9 1-5 3-11 4-16 2-6 3-9 5-11 3-4 5-8 8-10 3-2 5-5 7-7 11-12 21-20 31-26 10-6 22-12 34-19 5-2 9-4 12-5 3-1 7-2 11-2 5-.3 10-3 14-7 5-4 7-8 7-10l-.5-1c0-1-.7-1-2-1l-3-2c-2-1-3-3-3-6-2-5-8-8-17-8-9-1-17 .3-25 4-1 .7-4 2-7 3-3 1-6 2-9 4-2 1-6 3-11 7-5 4-11 8-17 12-6 5-12 9-17 14-5 5-9 9-11 12-2 .3-2-.8-1-3 1-3 3-7 5-11 3-5 5-9 6-13 8-15 12-27 14-34 1-8 .2-13-3-16-3-3-8-4-15-4zm787 0c-4 0-7 .5-11 1-4 .7-7 2-10 3-9 4-18 11-27 21-9 10-17 22-25 35-7 13-13 27-18 41-4 14-6 27-6 39 0 22 5 38 14 48 10 11 24 16 42 16 7 0 14-1 21-4 7-3 12-5 13-7h4c3 0 6-2 9-6h-.5c1-.7 2-1 3-1 1-.7 2-1 3-1 4-2 8-5 12-9 4-4 8-9 10-13 3-4 4-7 4-9 0-5-2-8-7-11-4-3-9-5-13-4-2 0-3 .7-4 2-1 .7-2 1-4 2-2 .7-6 2-11 5l.5 1-2 1c-4 2-8 5-12 8-4 3-8 5-14 6-1 .3-3 .7-5 1h-5c-3 0-6-.5-8-1-2-1-4-2-5-4-2-3-3-6-3-10-.3-4-.5-8-.5-12 0-2 .3-5 1-9 1-4 3-10 5-16l2-5 4 3c5 3 10 6 15 8 6 2 12 3 19 3 3 0 5-.2 7-.5 3-.7 5-2 8-3 10-4 19-11 27-21 9-10 15-20 20-31 2-4 3-7 3-11 .7-4 1-8 1-11 0-12-3-22-9-29-6-7-12-11-20-13-4-2-9-3-14-3-5-.7-9-1-13-1zm135 0c-7 0-12 2-16 5-3 5-7 12-11 23-4 10-8 20-12 32-4 11-7 22-10 31-3 10-4 16-5 20-2 9-4 17-6 25-2 7-3 15-4 24-1 7 .2 12 3 15 4 4 7 7 10 9 5 5 10 7 13 6 4-1 8-5 12-10 2-3 4-6 5-9l1-5c0-1 .5-4 1-9 1-5 3-11 4-16 2-6 3-9 5-11 3-4 5-8 8-10 3-2 5-5 7-7 11-12 21-20 31-26 10-6 22-12 34-19 5-2 9-4 12-5 3-1 7-2 11-2 5-.3 10-3 14-7 5-4 7-8 7-10l-.5-1c0-1-.7-1-2-1l-3-2c-2-1-3-3-3-6-2-5-8-8-17-8-9-1-17 .3-25 4-1 .7-4 2-7 3-3 1-6 2-9 4-2 1-6 3-11 7-5 4-11 8-17 12-6 5-12 9-17 14-5 5-9 9-11 12-2 .3-2-.8-1-3 1-3 3-7 5-11 3-5 5-9 6-13 8-15 12-27 14-34 1-8 .2-13-3-16-3-3-8-4-15-4zm-699 1c-6 .3-12 2-18 6-3 2-8 5-13 9-5 4-10 9-15 14-5 5-9 9-13 13-3 4-5 7-6 8l-4 8c-1 0-2 .7-3 2-1 1-1 2-1 3-1 1-3 4-6 8-3 4-5 8-8 10-6 12-12 23-17 34-5 11-9 21-12 29-3 8-3 12-1 14 1 1 3 3 4 6 2 3 2 5 2 6 0 1 2 3 6 6 5 3 8 5 9 8 11 7 25 7 41 .5 17-7 37-23 60-46 2-2 4-4 6-6 2-3 4-5 5-6 .3 2 1 5 3 11 2 5 4 9 5 11 8 15 17 24 27 28 10 4 20 5 31 3 3-.7 6-3 9-6 3-4 4-9 4-17 0-4-1-6-3-8-2-2-5-3-7-3-5-.7-8-2-11-4-3-2-5-5-6-8-4-7-7-16-9-26-2-10-.8-21 3-35l8-25-18-16c-3-3-7-6-12-10-4-4-8-7-12-10-3-3-5-5-6-6-5-4-12-7-19-7-.9-.04-2-.05-3-.01zm215 8c-5 0-11 1-17 3-6 2-11 4-15 5-4 1-8 3-13 6-5 3-8 6-10 8-3 3-8 8-13 15-5 7-10 13-14 20-4 6-6 10-6 12l-1 4c-1 3-2 5-3 8-3 8-6 17-8 27-2 10-4 19-4 28-.3 9 .2 15 1 20 1 1 4 4 7 8 3 4 6 7 7 10 3 2 5 4 6 5 2 1 4 2 7 3 4 .7 9 1 16 1 9 0 18-.5 27-1 9-1 14-4 18-7 0-1 .5-2 1-2 1-.3 3-1 5-2 1 0 3-.5 5-1 2-1 5-3 7-5l3-3c1-1 3-1 4-1l4-5c3-3 5-7 8-11 3-4 6-8 7-10 1-1 2-3 3-5 1-2 1-4 1-5-2-2-3-4-2-7 0-1-1-2-4-3-2-1-5-2-8-2-3-.7-5 .3-7 3-1 1-2 2-3 2s-1-.7-1-2c0-1-1-1-3 .5-2 2-5 4-8 6-5 3-10 7-15 11-5 4-10 8-15 10-7 3-12 5-15 5-2 0-5-1-9-3-5-2-7-5-7-9 0-1 .2-2 .5-3 .3-1 .5-3 .5-4l1-4c1-3 3-10 7-21 3-6 6-12 9-17 4-6 7-11 11-16 4-5 7-9 9-11 5-6 9-10 12-12 3-3 6-4 10-4 3 0 4 2 4 5 0 4-.7 8-2 12-1 4-2 6-2 8 0 2 .7 4 2 6 4 5 9 7 15 7 6-.3 11-2 16-6 5-4 8-10 10-16 1-6 1-13-.5-21-2-8-5-15-11-21-4-5-8-8-13-10-5-2-10-3-15-3zm356 28c1 0 2 .3 3 1 1 .3 2 1 2 2 4 5 5 11 2 20-2 9-7 16-15 22-2 1-5 2-7 3-2 1-5 1-8 1-4 0-7-1-9-3-1-2-2-4-3-6-1-2-3-3-6-3-.3 0-.8.2-1 .5-.3 0-.8.2-1 .5l6-10c4-6 8-11 12-15 4-4 9-8 13-10 5-2 9-3 12-3zm-153 2c.3.06.6.3.7.6 2 3 1 8-1 13-3 5-5 9-7 11-2 2-5 6-10 10-4 4-9 9-14 13-5 4-10 8-15 12-4 4-7 6-9 7-3 2-7 2-10 .5-3-2-6-4-8-7-2-3-3-6-2-8 3-6 8-11 14-15 6-5 12-9 19-13 7-4 13-8 19-11 7-4 13-7 18-10 3-2 6-3 7-3zm-413 5c3 0 5 1 8 3 3 2 6 7 9 15l-11 18c-7 10-14 18-21 24-7 6-16 14-28 24-8 7-15 11-20 14-5 3-9 4-11 3l3-10c2-7 6-14 10-21 9-15 17-28 25-38 8-11 14-18 20-24 6-6 11-8 15-8z" fill="url(#linearGradient16600)"/></g><style type="text/css">.st0{fill-rule:evenodd;clip-rule:evenodd;}</style></svg>
